<svg width="224" height="44" viewBox="0 0 224 44" fill="none" xmlns="http://www.w3.org/2000/svg">
    <path d="M20 41C31.0457 41 40 32.0457 40 21C40 9.9543 31.0457 1 20 1C8.9543 1 0 9.9543 0 21C0 32.0457 8.9543 41 20 41Z" fill="white"/>
    <path fill-rule="evenodd" clip-rule="evenodd" d="M12.5751 24.6821C10.4538 21.1468 10.8075 17.9645 13.6358 15.1362C17.8784 10.8935 21.5907 13.5452 24.2424 11.9542C26.0104 10.8935 26.7174 9.12588 26.3637 6.65088C28.485 10.1862 28.1314 13.3685 25.3031 16.1968C21.0604 20.4395 17.3481 17.7878 14.6965 19.3788C12.9285 20.4395 12.2215 22.2071 12.5751 24.6821ZM13.6358 36.3494C11.5145 32.8141 11.8681 29.6318 14.6965 26.8034C18.9391 22.5608 22.6514 25.2124 25.3031 23.6215C27.071 22.5608 27.778 20.7931 27.4244 18.3182C29.5457 21.8535 29.192 25.0358 26.3637 27.8641C22.1211 32.1067 18.4088 29.4551 15.7571 31.0461C13.9891 32.1067 13.2821 33.8744 13.6358 36.3494V36.3494Z" fill="#3056D3"/>
    <path d="M49.5824 35V8.81818H59.4006C61.4119 8.81818 63.0994 9.19318 64.4631 9.94318C65.8352 10.6932 66.8707 11.7244 67.5696 13.0369C68.277 14.3409 68.6307 15.8239 68.6307 17.4858C68.6307 19.1648 68.277 20.6562 67.5696 21.9602C66.8622 23.2642 65.8182 24.2912 64.4375 25.0412C63.0568 25.7827 61.3565 26.1534 59.3366 26.1534H52.8295V22.2543H58.6974C59.8736 22.2543 60.8366 22.0497 61.5866 21.6406C62.3366 21.2315 62.8906 20.669 63.2486 19.9531C63.6151 19.2372 63.7983 18.4148 63.7983 17.4858C63.7983 16.5568 63.6151 15.7386 63.2486 15.0312C62.8906 14.3239 62.3324 13.7741 61.5739 13.3821C60.8239 12.9815 59.8565 12.7812 58.6719 12.7812H54.3253V35H49.5824ZM72.7504 35V8.81818H77.4933V31.0241H89.0245V35H72.7504ZM97.4876 35H92.4251L101.642 8.81818H107.498L116.728 35H111.665L104.672 14.1875H104.468L97.4876 35ZM97.6538 24.7344H111.461V28.544H97.6538V24.7344ZM124.919 8.81818V35H120.176V8.81818H124.919ZM151.571 8.81818V35H147.352L135.015 17.1662H134.798V35H130.055V8.81818H134.299L146.623 26.6648H146.853V8.81818H151.571ZM157.634 35V8.81818H166.084C167.942 8.81818 169.493 9.17614 170.737 9.89205C171.99 10.5994 172.932 11.5625 173.562 12.7812C174.202 14 174.521 15.3722 174.521 16.8977C174.521 18.4233 174.206 19.7997 173.575 21.027C172.945 22.2457 172.007 23.2131 170.763 23.929C169.518 24.6364 167.972 24.9901 166.122 24.9901H159.474V22.8423H166.058C167.43 22.8423 168.568 22.5866 169.472 22.0753C170.375 21.5554 171.048 20.848 171.491 19.9531C171.943 19.0582 172.169 18.0398 172.169 16.8977C172.169 15.7557 171.943 14.7372 171.491 13.8423C171.048 12.9474 170.371 12.2443 169.459 11.733C168.555 11.2216 167.409 10.9659 166.02 10.9659H160.024V35H157.634ZM177.5 35H174.994L184.518 8.81818H187.075L196.599 35H194.094L185.886 11.9247H185.707L177.5 35ZM179.303 24.9645H192.291V27.1122H179.303V24.9645ZM195.96 8.81818H198.722L206.482 21.2443H206.712L214.472 8.81818H217.233L207.786 23.6605V35H205.408V23.6605L195.96 8.81818Z" fill="white"/>
</svg>
